<mxfile host="app.diagrams.net" agent="Mozilla/5.0 (Windows NT 10.0; Win64; x64) AppleWebKit/537.36 (KHTML, like Gecko) Chrome/128.0.0.0 Safari/537.36 OPR/114.0.0.0" version="24.9.1">
  <diagram name="Page-1" id="JO2g9kV5O2czI3ieAFtl">
    <mxGraphModel dx="2250" dy="1915" grid="1" gridSize="10" guides="1" tooltips="1" connect="1" arrows="1" fold="1" page="1" pageScale="1" pageWidth="827" pageHeight="1169" math="0" shadow="0">
      <root>
        <mxCell id="0" />
        <mxCell id="1" parent="0" />
        <mxCell id="rrhw7ANg_RHcBV60m503-11" style="edgeStyle=orthogonalEdgeStyle;rounded=0;orthogonalLoop=1;jettySize=auto;html=1;" edge="1" parent="1" source="rrhw7ANg_RHcBV60m503-1" target="rrhw7ANg_RHcBV60m503-9">
          <mxGeometry relative="1" as="geometry">
            <Array as="points">
              <mxPoint x="140" y="30" />
              <mxPoint x="140" y="190" />
            </Array>
          </mxGeometry>
        </mxCell>
        <mxCell id="rrhw7ANg_RHcBV60m503-1" value="Personal Financial Data" style="rounded=1;whiteSpace=wrap;html=1;fillColor=#1ba1e2;strokeColor=#006EAF;fontColor=#ffffff;strokeWidth=2;fontStyle=1;fontSize=14;" vertex="1" parent="1">
          <mxGeometry x="-40" width="120" height="60" as="geometry" />
        </mxCell>
        <mxCell id="rrhw7ANg_RHcBV60m503-12" style="edgeStyle=orthogonalEdgeStyle;rounded=0;orthogonalLoop=1;jettySize=auto;html=1;" edge="1" parent="1" source="rrhw7ANg_RHcBV60m503-4" target="rrhw7ANg_RHcBV60m503-9">
          <mxGeometry relative="1" as="geometry">
            <Array as="points">
              <mxPoint x="140" y="350" />
              <mxPoint x="140" y="190" />
            </Array>
          </mxGeometry>
        </mxCell>
        <mxCell id="rrhw7ANg_RHcBV60m503-4" value="Behavioural Data" style="rounded=1;whiteSpace=wrap;html=1;fillColor=#1ba1e2;strokeColor=#006EAF;fontColor=#ffffff;strokeWidth=2;fontStyle=1;fontSize=14;" vertex="1" parent="1">
          <mxGeometry x="-40" y="320" width="120" height="60" as="geometry" />
        </mxCell>
        <mxCell id="rrhw7ANg_RHcBV60m503-17" style="edgeStyle=orthogonalEdgeStyle;rounded=0;orthogonalLoop=1;jettySize=auto;html=1;" edge="1" parent="1" source="rrhw7ANg_RHcBV60m503-5" target="rrhw7ANg_RHcBV60m503-9">
          <mxGeometry relative="1" as="geometry" />
        </mxCell>
        <mxCell id="rrhw7ANg_RHcBV60m503-5" value="Contextual Data" style="rounded=1;whiteSpace=wrap;html=1;fillColor=#1ba1e2;strokeColor=#006EAF;fontColor=#ffffff;strokeWidth=2;fontStyle=1;fontSize=14;" vertex="1" parent="1">
          <mxGeometry x="240" y="320" width="120" height="60" as="geometry" />
        </mxCell>
        <mxCell id="rrhw7ANg_RHcBV60m503-14" style="edgeStyle=orthogonalEdgeStyle;rounded=0;orthogonalLoop=1;jettySize=auto;html=1;" edge="1" parent="1" source="rrhw7ANg_RHcBV60m503-6" target="rrhw7ANg_RHcBV60m503-16">
          <mxGeometry relative="1" as="geometry" />
        </mxCell>
        <mxCell id="rrhw7ANg_RHcBV60m503-6" value="External Data Sources" style="rounded=1;whiteSpace=wrap;html=1;fillColor=#1ba1e2;strokeColor=#006EAF;fontColor=#ffffff;strokeWidth=2;fontStyle=1;fontSize=14;" vertex="1" parent="1">
          <mxGeometry x="470" y="320" width="120" height="60" as="geometry" />
        </mxCell>
        <mxCell id="rrhw7ANg_RHcBV60m503-18" style="edgeStyle=orthogonalEdgeStyle;rounded=0;orthogonalLoop=1;jettySize=auto;html=1;" edge="1" parent="1" source="rrhw7ANg_RHcBV60m503-8" target="rrhw7ANg_RHcBV60m503-10">
          <mxGeometry relative="1" as="geometry" />
        </mxCell>
        <mxCell id="rrhw7ANg_RHcBV60m503-8" value="Predictive Data" style="rounded=1;whiteSpace=wrap;html=1;fillColor=#1ba1e2;strokeColor=#006EAF;fontColor=#ffffff;strokeWidth=2;fontStyle=1;fontSize=14;" vertex="1" parent="1">
          <mxGeometry x="700" y="-100" width="120" height="60" as="geometry" />
        </mxCell>
        <mxCell id="rrhw7ANg_RHcBV60m503-19" style="edgeStyle=orthogonalEdgeStyle;rounded=0;orthogonalLoop=1;jettySize=auto;html=1;" edge="1" parent="1" source="rrhw7ANg_RHcBV60m503-9" target="rrhw7ANg_RHcBV60m503-16">
          <mxGeometry relative="1" as="geometry" />
        </mxCell>
        <mxCell id="rrhw7ANg_RHcBV60m503-9" value="&lt;b&gt;User Data&lt;/b&gt;" style="rounded=0;whiteSpace=wrap;html=1;strokeWidth=2;fillColor=#fa6800;fontColor=#FAFAFA;strokeColor=#C73500;fontSize=14;" vertex="1" parent="1">
          <mxGeometry x="240" y="160" width="120" height="60" as="geometry" />
        </mxCell>
        <mxCell id="rrhw7ANg_RHcBV60m503-28" style="edgeStyle=orthogonalEdgeStyle;rounded=0;orthogonalLoop=1;jettySize=auto;html=1;" edge="1" parent="1" source="rrhw7ANg_RHcBV60m503-10" target="rrhw7ANg_RHcBV60m503-24">
          <mxGeometry relative="1" as="geometry" />
        </mxCell>
        <mxCell id="rrhw7ANg_RHcBV60m503-10" value="Budget AI" style="rounded=0;whiteSpace=wrap;html=1;strokeWidth=2;fillColor=#6a00ff;fontColor=#ffffff;strokeColor=#3700CC;fontStyle=1;fontSize=14;" vertex="1" parent="1">
          <mxGeometry x="700" y="23" width="120" height="60" as="geometry" />
        </mxCell>
        <mxCell id="rrhw7ANg_RHcBV60m503-13" value="User Input" style="text;html=1;align=center;verticalAlign=middle;resizable=0;points=[];autosize=1;strokeColor=none;fillColor=none;fontStyle=1;fontSize=13;" vertex="1" parent="1">
          <mxGeometry x="140" y="160" width="80" height="30" as="geometry" />
        </mxCell>
        <mxCell id="rrhw7ANg_RHcBV60m503-26" style="edgeStyle=orthogonalEdgeStyle;rounded=0;orthogonalLoop=1;jettySize=auto;html=1;" edge="1" parent="1" source="rrhw7ANg_RHcBV60m503-16" target="rrhw7ANg_RHcBV60m503-24">
          <mxGeometry relative="1" as="geometry" />
        </mxCell>
        <mxCell id="rrhw7ANg_RHcBV60m503-16" value="&lt;b&gt;Current Financial Budget&lt;/b&gt;" style="rounded=0;whiteSpace=wrap;html=1;strokeWidth=2;fillColor=#fa6800;fontColor=#FAFAFA;strokeColor=#C73500;fontSize=14;" vertex="1" parent="1">
          <mxGeometry x="470" y="160" width="120" height="60" as="geometry" />
        </mxCell>
        <mxCell id="rrhw7ANg_RHcBV60m503-20" value="Income,&lt;div&gt;Expense&lt;/div&gt;&lt;div&gt;and Savings&lt;/div&gt;" style="text;html=1;align=center;verticalAlign=middle;resizable=0;points=[];autosize=1;strokeColor=none;fillColor=none;fontStyle=1;fontSize=13;" vertex="1" parent="1">
          <mxGeometry x="35" y="83" width="100" height="60" as="geometry" />
        </mxCell>
        <mxCell id="rrhw7ANg_RHcBV60m503-21" value="Spending habits&lt;div&gt;and budget adherence&lt;/div&gt;" style="text;html=1;align=center;verticalAlign=middle;resizable=0;points=[];autosize=1;strokeColor=none;fillColor=none;fontStyle=1;fontSize=13;" vertex="1" parent="1">
          <mxGeometry x="-15" y="243" width="150" height="40" as="geometry" />
        </mxCell>
        <mxCell id="rrhw7ANg_RHcBV60m503-22" value="Subscriptions,&lt;div&gt;Bills,&lt;/div&gt;&lt;div&gt;Financial Goals&lt;/div&gt;" style="text;html=1;align=center;verticalAlign=middle;resizable=0;points=[];autosize=1;strokeColor=none;fillColor=none;fontStyle=1;fontSize=13;" vertex="1" parent="1">
          <mxGeometry x="300" y="243" width="110" height="60" as="geometry" />
        </mxCell>
        <mxCell id="rrhw7ANg_RHcBV60m503-23" value="Inflation rates,&lt;div&gt;interest rates,&lt;/div&gt;&lt;div&gt;tax&lt;/div&gt;" style="text;html=1;align=center;verticalAlign=middle;resizable=0;points=[];autosize=1;strokeColor=none;fillColor=none;fontStyle=1;fontSize=13;" vertex="1" parent="1">
          <mxGeometry x="525" y="243" width="110" height="60" as="geometry" />
        </mxCell>
        <mxCell id="rrhw7ANg_RHcBV60m503-27" style="edgeStyle=orthogonalEdgeStyle;rounded=0;orthogonalLoop=1;jettySize=auto;html=1;" edge="1" parent="1" source="rrhw7ANg_RHcBV60m503-24" target="rrhw7ANg_RHcBV60m503-25">
          <mxGeometry relative="1" as="geometry" />
        </mxCell>
        <mxCell id="rrhw7ANg_RHcBV60m503-24" value="&lt;b&gt;Future Financial Growth&lt;/b&gt;" style="rounded=0;whiteSpace=wrap;html=1;strokeWidth=2;fillColor=#fa6800;fontColor=#FAFAFA;strokeColor=#C73500;fontSize=14;" vertex="1" parent="1">
          <mxGeometry x="700" y="160" width="120" height="60" as="geometry" />
        </mxCell>
        <mxCell id="rrhw7ANg_RHcBV60m503-25" value="&lt;b&gt;Print User&#39;s Financial Information and Future Plan&lt;/b&gt;" style="rounded=0;whiteSpace=wrap;html=1;strokeWidth=2;fillColor=#FA5A5F;strokeColor=#FF9999;fontColor=#FFFFFF;" vertex="1" parent="1">
          <mxGeometry x="920" y="155" width="130" height="70" as="geometry" />
        </mxCell>
        <mxCell id="rrhw7ANg_RHcBV60m503-29" value="Predictions for uptrend&amp;nbsp;&lt;div&gt;inclines or recessions&lt;/div&gt;" style="text;html=1;align=center;verticalAlign=middle;resizable=0;points=[];autosize=1;strokeColor=none;fillColor=none;fontStyle=1;fontSize=13;" vertex="1" parent="1">
          <mxGeometry x="760" y="-30" width="160" height="40" as="geometry" />
        </mxCell>
        <mxCell id="rrhw7ANg_RHcBV60m503-30" value="AI used for interpreting&lt;div&gt;what plans will the user&lt;/div&gt;&lt;div&gt;benefit from&lt;/div&gt;" style="text;html=1;align=center;verticalAlign=middle;resizable=0;points=[];autosize=1;strokeColor=none;fillColor=none;fontStyle=1;fontSize=13;" vertex="1" parent="1">
          <mxGeometry x="760" y="95" width="160" height="60" as="geometry" />
        </mxCell>
      </root>
    </mxGraphModel>
  </diagram>
</mxfile>
